<?xml version="1.0"?>
<svg xmlns="http://www.w3.org/2000/svg" id="Filled" height="512px" viewBox="0 0 512 512" width="512px" class=""><g><g fill="#eb423f"><path d="m400 184a63.762 63.762 0 0 0 -32 8.55 63.762 63.762 0 0 0 -32-8.55v48a32.04 32.04 0 0 0 .69 6.62v.01a32.005 32.005 0 0 0 62.62 0v-.01a32.04 32.04 0 0 0 .69-6.62z" data-original="#EB423F" class="" style="fill:#EB423F"/><path d="m288 128a63.762 63.762 0 0 0 -32 8.55 63.762 63.762 0 0 0 -32-8.55v48a32.04 32.04 0 0 0 .69 6.62v.01a32.005 32.005 0 0 0 62.62 0v-.01a32.04 32.04 0 0 0 .69-6.62z" data-original="#EB423F" class="" style="fill:#EB423F"/><path d="m144 192.55a63.762 63.762 0 0 0 -32-8.55v48a32.04 32.04 0 0 0 .69 6.62v.01a32.005 32.005 0 0 0 62.62 0v-.01a32.04 32.04 0 0 0 .69-6.62v-48a63.762 63.762 0 0 0 -32 8.55z" data-original="#EB423F" class="" style="fill:#EB423F"/></g><path d="m40 240c0-119.293 96.706-216 216-216s216 96.707 216 216v88h-32v-88a184 184 0 0 0 -368 0v88h-32z" fill="#ad6643" data-original="#AD6643" class="" style="fill:#F8ECC9" data-old_color="#ad6643"/><path d="m40 360h432a0 0 0 0 1 0 0v32a96 96 0 0 1 -96 96h-240a96 96 0 0 1 -96-96v-32a0 0 0 0 1 0 0z" fill="#ad6643" data-original="#AD6643" class="" style="fill:#F8ECC9" data-old_color="#ad6643"/><path d="m176 184v48a32.04 32.04 0 0 1 -.69 6.62 64.1 64.1 0 0 0 -31.31-46.07 63.762 63.762 0 0 1 32-8.55z" fill="#a82a27" data-original="#A82A27" class=""/><path d="m288 128v48a32.04 32.04 0 0 1 -.69 6.62 64.1 64.1 0 0 0 -31.31-46.07 63.762 63.762 0 0 1 32-8.55z" fill="#a82a27" data-original="#A82A27" class=""/><path d="m400 184v48a32.04 32.04 0 0 1 -.69 6.62 64.1 64.1 0 0 0 -31.31-46.07 63.762 63.762 0 0 1 32-8.55z" fill="#a82a27" data-original="#A82A27" class=""/><path d="m24 328h464v32h-464z" fill="#734b39" data-original="#734B39" class="active-path" style="fill:#F8ECC9" data-old_color="#734b39"/><path d="m256 304c0-35.346 21.49-64 48-64 0 35.346-21.49 64-48 64z" fill="#35a872" data-original="#35A872" class=""/><path d="m256 288c0-35.346-21.49-64-48-64 0 35.346 21.49 64 48 64z" fill="#35a872" data-original="#35A872" class=""/><path d="m106.343 445.657a8 8 0 0 0 11.314 0l10.343-10.343 10.343 10.343a8 8 0 1 0 11.314-11.314l-10.343-10.343 10.343-10.343a8 8 0 1 0 -11.314-11.314l-10.343 10.343-10.343-10.343a8 8 0 0 0 -11.314 11.314l10.343 10.343-10.343 10.343a8 8 0 0 0 0 11.314z" data-original="#000000" class="" style="fill:#000000"/><path d="m170.343 445.657a8 8 0 0 0 11.314 0l10.343-10.343 10.343 10.343a8 8 0 1 0 11.314-11.314l-10.343-10.343 10.343-10.343a8 8 0 1 0 -11.314-11.314l-10.343 10.343-10.343-10.343a8 8 0 0 0 -11.314 11.314l10.343 10.343-10.343 10.343a8 8 0 0 0 0 11.314z" data-original="#000000" class="" style="fill:#000000"/><path d="m234.343 445.657a8 8 0 0 0 11.314 0l10.343-10.343 10.343 10.343a8 8 0 0 0 11.314-11.314l-10.343-10.343 10.343-10.343a8 8 0 0 0 -11.314-11.314l-10.343 10.343-10.343-10.343a8 8 0 0 0 -11.314 11.314l10.343 10.343-10.343 10.343a8 8 0 0 0 0 11.314z" data-original="#000000" class="" style="fill:#000000"/><path d="m298.343 445.657a8 8 0 0 0 11.314 0l10.343-10.343 10.343 10.343a8 8 0 0 0 11.314-11.314l-10.343-10.343 10.343-10.343a8 8 0 0 0 -11.314-11.314l-10.343 10.343-10.343-10.343a8 8 0 0 0 -11.314 11.314l10.343 10.343-10.343 10.343a8 8 0 0 0 0 11.314z" data-original="#000000" class="" style="fill:#000000"/><path d="m362.343 445.657a8 8 0 0 0 11.314 0l10.343-10.343 10.343 10.343a8 8 0 0 0 11.314-11.314l-10.343-10.343 10.343-10.343a8 8 0 0 0 -11.314-11.314l-10.343 10.343-10.343-10.343a8 8 0 0 0 -11.314 11.314l10.343 10.343-10.343 10.343a8 8 0 0 0 0 11.314z" data-original="#000000" class="" style="fill:#000000"/><path d="m488 320h-8v-80a224 224 0 0 0 -382.392-158.392 222.533 222.533 0 0 0 -65.608 158.392v80h-8a8 8 0 0 0 -8 8v32a8 8 0 0 0 8 8h8v24a104.118 104.118 0 0 0 104 104h240a104.118 104.118 0 0 0 104-104v-24h8a8 8 0 0 0 8-8v-32a8 8 0 0 0 -8-8zm-440-80c0-114.691 93.309-208 208-208s208 93.309 208 208v80h-16v-80c0-105.869-86.131-192-192-192s-192 86.131-192 192v80h-16zm296-47.43a55.965 55.965 0 0 1 47.145 45.715 23.991 23.991 0 0 1 -46.595-1.158c-.01-.054-.021-.107-.032-.161a24.018 24.018 0 0 1 -.518-4.966zm48 10.17a73.312 73.312 0 0 0 -5.083-5.657c-.951-.951-1.929-1.864-2.922-2.754a56.043 56.043 0 0 1 8-1.75zm-16 68.436a40.18 40.18 0 0 0 31.138-30.9c.013-.061.025-.123.037-.184a40.09 40.09 0 0 0 .825-8.092v-48a8 8 0 0 0 -8-8 72.165 72.165 0 0 0 -32 7.48 71.719 71.719 0 0 0 -32-7.48 8 8 0 0 0 -8 8v48a40.053 40.053 0 0 0 .825 8.09c.011.062.024.125.037.187a40.18 40.18 0 0 0 31.138 30.899v48.824h-96v-8.746c27.1-5.008 48-35.046 48-71.254a8 8 0 0 0 -8-8c-15.658 0-29.828 8.315-40 21.679v-38.5a40.18 40.18 0 0 0 31.138-30.9c.013-.061.025-.123.037-.184a40.09 40.09 0 0 0 .825-8.095v-48a8 8 0 0 0 -8-8 72.165 72.165 0 0 0 -32 7.48 71.719 71.719 0 0 0 -32-7.48 8 8 0 0 0 -8 8v48a40.053 40.053 0 0 0 .825 8.09c.011.062.024.125.037.187a40.18 40.18 0 0 0 31.138 30.899v22.5c-10.172-13.361-24.342-21.676-40-21.676a8 8 0 0 0 -8 8c0 36.208 20.9 66.246 48 71.254v24.746h-96v-48.824a40.18 40.18 0 0 0 31.138-30.9c.013-.061.025-.123.037-.184a40.09 40.09 0 0 0 .825-8.092v-48a8 8 0 0 0 -8-8 72.165 72.165 0 0 0 -32 7.48 71.719 71.719 0 0 0 -32-7.48 8 8 0 0 0 -8 8v48a40.053 40.053 0 0 0 .825 8.09c.011.062.024.125.037.187a40.18 40.18 0 0 0 31.138 30.899v48.824h-56v-80c0-97.047 78.953-176 176-176s176 78.953 176 176v80h-56zm-144-134.606a55.965 55.965 0 0 1 47.145 45.715 23.991 23.991 0 0 1 -46.595-1.158c-.01-.054-.021-.107-.032-.161a24.018 24.018 0 0 1 -.518-4.966zm48 10.17a73.312 73.312 0 0 0 -5.083-5.657c-.951-.951-1.929-1.864-2.922-2.754a56.043 56.043 0 0 1 8-1.75zm-15.45 147.972c2.7-22.552 15.059-40.577 30.9-45.424-2.699 22.552-15.059 40.577-30.9 45.424zm-17.1-16c-15.841-4.847-28.2-22.872-30.9-45.424 15.841 4.847 28.201 22.872 30.9 45.424zm-127.45-86.142a55.966 55.966 0 0 1 47.144 45.715 23.991 23.991 0 0 1 -46.594-1.158c-.01-.054-.021-.107-.032-.161a24.018 24.018 0 0 1 -.518-4.966zm48 10.17a73.312 73.312 0 0 0 -5.083-5.657c-.951-.951-1.929-1.864-2.922-2.754a56.043 56.043 0 0 1 8-1.75zm296 189.26a88.1 88.1 0 0 1 -88 88h-240a88.1 88.1 0 0 1 -88-88v-24h416zm16-40h-448v-16h448z" data-original="#000000" class="" style="fill:#000000"/></g> </svg>
